# Blender v2.79 (sub 0) OBJ File: ''
# www.blender.org
mtllib Cylinder.mtl
o Cylinder
v 0.000000 -1.000000 -1.000000
v 0.000000 1.000000 -1.000000
v 0.098017 -1.000000 -0.995185
v 0.098017 1.000000 -0.995185
v 0.195090 -1.000000 -0.980785
v 0.195090 1.000000 -0.980785
v 0.290285 -1.000000 -0.956940
v 0.290285 1.000000 -0.956940
v 0.382683 -1.000000 -0.923880
v 0.382683 1.000000 -0.923880
v 0.471397 -1.000000 -0.881921
v 0.471397 1.000000 -0.881921
v 0.555570 -1.000000 -0.831470
v 0.555570 1.000000 -0.831470
v 0.634393 -1.000000 -0.773010
v 0.634393 1.000000 -0.773010
v 0.707107 -1.000000 -0.707107
v 0.707107 1.000000 -0.707107
v 0.773010 -1.000000 -0.634393
v 0.773010 1.000000 -0.634393
v 0.831470 -1.000000 -0.555570
v 0.831470 1.000000 -0.555570
v 0.881921 -1.000000 -0.471397
v 0.881921 1.000000 -0.471397
v 0.923880 -1.000000 -0.382683
v 0.923880 1.000000 -0.382683
v 0.956940 -1.000000 -0.290285
v 0.956940 1.000000 -0.290285
v 0.980785 -1.000000 -0.195090
v 0.980785 1.000000 -0.195090
v 0.995185 -1.000000 -0.098017
v 0.995185 1.000000 -0.098017
v 1.000000 -1.000000 0.000000
v 1.000000 1.000000 0.000000
v 0.995185 -1.000000 0.098017
v 0.995185 1.000000 0.098017
v 0.980785 -1.000000 0.195091
v 0.980785 1.000000 0.195091
v 0.956940 -1.000000 0.290285
v 0.956940 1.000000 0.290285
v 0.923879 -1.000000 0.382684
v 0.923879 1.000000 0.382684
v 0.881921 -1.000000 0.471397
v 0.881921 1.000000 0.471397
v 0.831469 -1.000000 0.555571
v 0.831469 1.000000 0.555571
v 0.773010 -1.000000 0.634394
v 0.773010 1.000000 0.634394
v 0.707106 -1.000000 0.707107
v 0.707106 1.000000 0.707107
v 0.634393 -1.000000 0.773011
v 0.634393 1.000000 0.773011
v 0.555570 -1.000000 0.831470
v 0.555570 1.000000 0.831470
v 0.471396 -1.000000 0.881922
v 0.471396 1.000000 0.881922
v 0.382683 -1.000000 0.923880
v 0.382683 1.000000 0.923880
v 0.290284 -1.000000 0.956941
v 0.290284 1.000000 0.956941
v 0.195090 -1.000000 0.980785
v 0.195090 1.000000 0.980785
v 0.098016 -1.000000 0.995185
v 0.098016 1.000000 0.995185
v -0.000001 -1.000000 1.000000
v -0.000001 1.000000 1.000000
v -0.098018 -1.000000 0.995185
v -0.098018 1.000000 0.995185
v -0.195091 -1.000000 0.980785
v -0.195091 1.000000 0.980785
v -0.290286 -1.000000 0.956940
v -0.290286 1.000000 0.956940
v -0.382684 -1.000000 0.923879
v -0.382684 1.000000 0.923879
v -0.471398 -1.000000 0.881921
v -0.471398 1.000000 0.881921
v -0.555571 -1.000000 0.831469
v -0.555571 1.000000 0.831469
v -0.634394 -1.000000 0.773010
v -0.634394 1.000000 0.773010
v -0.707108 -1.000000 0.707106
v -0.707108 1.000000 0.707106
v -0.773011 -1.000000 0.634393
v -0.773011 1.000000 0.634393
v -0.831470 -1.000000 0.555570
v -0.831470 1.000000 0.555570
v -0.881922 -1.000000 0.471396
v -0.881922 1.000000 0.471396
v -0.923880 -1.000000 0.382683
v -0.923880 1.000000 0.382683
v -0.956940 -1.000000 0.290285
v -0.956940 1.000000 0.290285
v -0.980785 -1.000000 0.195090
v -0.980785 1.000000 0.195090
v -0.995185 -1.000000 0.098017
v -0.995185 1.000000 0.098017
v -1.000000 -1.000000 0.000000
v -1.000000 1.000000 0.000000
v -0.995185 -1.000000 -0.098016
v -0.995185 1.000000 -0.098016
v -0.980785 -1.000000 -0.195089
v -0.980785 1.000000 -0.195089
v -0.956941 -1.000000 -0.290284
v -0.956941 1.000000 -0.290284
v -0.923880 -1.000000 -0.382682
v -0.923880 1.000000 -0.382682
v -0.881922 -1.000000 -0.471395
v -0.881922 1.000000 -0.471395
v -0.831471 -1.000000 -0.555569
v -0.831471 1.000000 -0.555569
v -0.773012 -1.000000 -0.634392
v -0.773012 1.000000 -0.634392
v -0.707108 -1.000000 -0.707105
v -0.707108 1.000000 -0.707105
v -0.634395 -1.000000 -0.773009
v -0.634395 1.000000 -0.773009
v -0.555572 -1.000000 -0.831468
v -0.555572 1.000000 -0.831468
v -0.471399 -1.000000 -0.881920
v -0.471399 1.000000 -0.881920
v -0.382686 -1.000000 -0.923878
v -0.382686 1.000000 -0.923878
v -0.290288 -1.000000 -0.956939
v -0.290288 1.000000 -0.956939
v -0.195093 -1.000000 -0.980785
v -0.195093 1.000000 -0.980785
v -0.098021 -1.000000 -0.995184
v -0.098021 1.000000 -0.995184
vt 0.984429 1.000000
vt 0.969291 -0.000000
vt 0.984429 -0.000000
vt 0.969291 1.000000
vt 0.954152 -0.000000
vt 0.954152 1.000000
vt 0.939014 -0.000000
vt 0.939014 1.000000
vt 0.923875 -0.000000
vt 0.923875 1.000000
vt 0.908737 -0.000000
vt 0.908737 1.000000
vt 0.893598 -0.000000
vt 0.893598 1.000000
vt 0.878460 -0.000000
vt 0.878460 1.000000
vt 0.863322 -0.000000
vt 0.863322 1.000000
vt 0.848183 -0.000000
vt 0.848183 1.000000
vt 0.833045 -0.000000
vt 0.833045 1.000000
vt 0.817906 -0.000000
vt 0.817906 1.000000
vt 0.802768 -0.000000
vt 0.802768 1.000000
vt 0.787630 -0.000000
vt 0.787630 1.000000
vt 0.772491 -0.000000
vt 0.772491 1.000000
vt 0.757353 -0.000000
vt 0.757353 1.000000
vt 0.742215 -0.000000
vt 0.742215 1.000000
vt 0.727076 -0.000000
vt 0.727076 1.000000
vt 0.711938 -0.000000
vt 0.711938 1.000000
vt 0.696799 -0.000000
vt 0.696799 1.000000
vt 0.681661 -0.000000
vt 0.681661 1.000000
vt 0.666522 -0.000000
vt 0.666522 1.000000
vt 0.651384 -0.000000
vt 0.651384 1.000000
vt 0.636246 -0.000000
vt 0.636246 1.000000
vt 0.621107 -0.000000
vt 0.621107 1.000000
vt 0.605969 -0.000000
vt 0.605969 1.000000
vt 0.590830 -0.000000
vt 0.590830 1.000000
vt 0.575692 -0.000000
vt 0.575692 1.000000
vt 0.560553 -0.000000
vt 0.560553 1.000000
vt 0.545415 0.000000
vt 0.545415 1.000000
vt 0.530277 0.000000
vt 0.530277 1.000000
vt 0.515138 0.000000
vt 0.515138 1.000000
vt 0.500000 0.000000
vt 0.500000 1.000000
vt 0.484861 0.000000
vt 0.484861 1.000000
vt 0.469723 0.000000
vt 0.469723 1.000000
vt 0.454585 0.000000
vt 0.454585 1.000000
vt 0.439446 0.000000
vt 0.439446 1.000000
vt 0.424308 0.000000
vt 0.424308 1.000000
vt 0.409169 0.000000
vt 0.409169 1.000000
vt 0.394031 0.000000
vt 0.394031 1.000000
vt 0.378893 0.000000
vt 0.378893 1.000000
vt 0.363754 0.000000
vt 0.363754 1.000000
vt 0.348616 0.000000
vt 0.348616 1.000000
vt 0.333477 0.000000
vt 0.333477 1.000000
vt 0.318339 0.000000
vt 0.318339 1.000000
vt 0.303201 0.000000
vt 0.303201 1.000000
vt 0.288062 0.000000
vt 0.288062 1.000000
vt 0.272924 0.000000
vt 0.272924 1.000000
vt 0.257786 0.000000
vt 0.257786 1.000000
vt 0.242647 0.000000
vt 0.242647 1.000000
vt 0.227509 0.000000
vt 0.227509 1.000000
vt 0.212370 -0.000000
vt 0.212370 1.000000
vt 0.197232 -0.000000
vt 0.197232 1.000000
vt 0.182094 -0.000000
vt 0.182094 1.000000
vt 0.166955 -0.000000
vt 0.166955 1.000000
vt 0.151817 -0.000000
vt 0.151817 1.000000
vt 0.136679 -0.000000
vt 0.136679 1.000000
vt 0.121540 -0.000000
vt 0.121540 1.000000
vt 0.106402 -0.000000
vt 0.106402 1.000000
vt 0.091264 -0.000000
vt 0.091263 1.000000
vt 0.076125 -0.000000
vt 0.076125 1.000000
vt 0.060987 -0.000000
vt 0.060987 1.000000
vt 0.045848 -0.000000
vt 1.002945 1.000000
vt 0.045848 1.000000
vt 0.030710 -0.000000
vt 0.030710 1.000000
vt 0.015571 -0.000000
vt 0.767697 -0.000000
vt 0.767697 1.000000
vt 0.775809 1.000000
vt 0.783921 1.000000
vt 0.792033 1.000000
vt 0.800145 1.000000
vt 0.808257 1.000000
vt 0.816369 1.000000
vt 0.840705 1.000000
vt 0.824481 1.000000
vt 0.832593 1.000000
vt 0.848817 1.000000
vt 0.873153 1.000000
vt 0.856929 1.000000
vt 0.865041 1.000000
vt 0.881265 1.000000
vt 0.905601 1.000000
vt 0.889377 1.000000
vt 0.897489 1.000000
vt 0.913713 1.000000
vt 0.938049 1.000000
vt 0.921825 1.000000
vt 0.929937 1.000000
vt 0.946161 1.000000
vt 0.970497 1.000000
vt 0.954273 1.000000
vt 0.962385 1.000000
vt 0.978609 1.000000
vt 0.986721 1.000000
vt 0.994833 1.000000
vt 1.011057 1.000000
vt 0.015571 1.000000
vt 0.994833 0.000000
vt 1.011057 0.000000
vt 1.002945 0.000000
vt 0.986721 0.000000
vt 0.962385 0.000000
vt 0.978609 0.000000
vt 0.970497 0.000000
vt 0.954273 0.000000
vt 0.946161 0.000000
vt 0.938049 0.000000
vt 0.929937 0.000000
vt 0.921825 0.000000
vt 0.913713 0.000000
vt 0.905601 0.000000
vt 0.897489 0.000000
vt 0.889377 0.000000
vt 0.881265 0.000000
vt 0.873153 0.000000
vt 0.865041 -0.000000
vt 0.856929 -0.000000
vt 0.848817 -0.000000
vt 0.840705 -0.000000
vt 0.832593 -0.000000
vt 0.824481 -0.000000
vt 0.816369 -0.000000
vt 0.808257 -0.000000
vt 0.800145 -0.000000
vt 0.792033 -0.000000
vt 0.783921 -0.000000
vt 0.775809 -0.000000
vn 0.0000 0.6962 -0.7178
vn 0.0703 -0.6962 -0.7143
vn 0.0000 -0.6962 -0.7178
vn 0.0703 0.6962 -0.7143
vn 0.1400 -0.6962 -0.7040
vn 0.1400 0.6962 -0.7040
vn 0.2083 -0.6962 -0.6869
vn 0.2083 0.6962 -0.6869
vn 0.2747 -0.6962 -0.6632
vn 0.2747 0.6962 -0.6632
vn 0.3384 -0.6962 -0.6330
vn 0.3384 0.6962 -0.6330
vn 0.3988 -0.6962 -0.5968
vn 0.3988 0.6962 -0.5968
vn 0.4554 -0.6962 -0.5549
vn 0.4554 0.6962 -0.5549
vn 0.5076 -0.6962 -0.5076
vn 0.5076 0.6962 -0.5076
vn 0.5549 -0.6962 -0.4554
vn 0.5549 0.6962 -0.4554
vn 0.5968 -0.6962 -0.3988
vn 0.5968 0.6962 -0.3988
vn 0.6330 -0.6962 -0.3384
vn 0.6330 0.6962 -0.3384
vn 0.6632 -0.6962 -0.2747
vn 0.6632 0.6962 -0.2747
vn 0.6869 -0.6962 -0.2083
vn 0.6869 0.6962 -0.2083
vn 0.7040 -0.6962 -0.1400
vn 0.7040 0.6962 -0.1400
vn 0.7143 -0.6962 -0.0703
vn 0.7143 0.6962 -0.0703
vn 0.7178 -0.6962 0.0000
vn 0.7178 0.6962 0.0000
vn 0.7143 -0.6962 0.0703
vn 0.7143 0.6962 0.0703
vn 0.7040 -0.6962 0.1400
vn 0.7040 0.6962 0.1400
vn 0.6869 -0.6962 0.2083
vn 0.6869 0.6962 0.2083
vn 0.6632 -0.6962 0.2747
vn 0.6632 0.6962 0.2747
vn 0.6330 -0.6962 0.3384
vn 0.6330 0.6962 0.3384
vn 0.5968 -0.6962 0.3988
vn 0.5968 0.6962 0.3988
vn 0.5549 -0.6962 0.4554
vn 0.5549 0.6962 0.4554
vn 0.5076 -0.6962 0.5076
vn 0.5076 0.6962 0.5076
vn 0.4554 -0.6962 0.5549
vn 0.4554 0.6962 0.5549
vn 0.3988 -0.6962 0.5968
vn 0.3988 0.6962 0.5968
vn 0.3384 -0.6962 0.6330
vn 0.3384 0.6962 0.6330
vn 0.2747 -0.6962 0.6632
vn 0.2747 0.6962 0.6632
vn 0.2083 -0.6962 0.6869
vn 0.2083 0.6962 0.6869
vn 0.1400 -0.6962 0.7040
vn 0.1400 0.6962 0.7040
vn 0.0703 -0.6962 0.7143
vn 0.0703 0.6962 0.7143
vn 0.0000 -0.6962 0.7178
vn 0.0000 0.6962 0.7178
vn -0.0703 -0.6962 0.7143
vn -0.0703 0.6962 0.7143
vn -0.1400 -0.6962 0.7040
vn -0.1400 0.6962 0.7040
vn -0.2083 -0.6962 0.6869
vn -0.2083 0.6962 0.6869
vn -0.2747 -0.6962 0.6632
vn -0.2747 0.6962 0.6632
vn -0.3384 -0.6962 0.6330
vn -0.3384 0.6962 0.6330
vn -0.3988 -0.6962 0.5968
vn -0.3988 0.6962 0.5968
vn -0.4554 -0.6962 0.5549
vn -0.4554 0.6962 0.5549
vn -0.5076 -0.6962 0.5076
vn -0.5076 0.6962 0.5076
vn -0.5549 -0.6962 0.4554
vn -0.5549 0.6962 0.4554
vn -0.5968 -0.6962 0.3988
vn -0.5968 0.6962 0.3988
vn -0.6330 -0.6962 0.3384
vn -0.6330 0.6962 0.3384
vn -0.6632 -0.6962 0.2747
vn -0.6632 0.6962 0.2747
vn -0.6869 -0.6962 0.2083
vn -0.6869 0.6962 0.2083
vn -0.7040 -0.6962 0.1400
vn -0.7040 0.6962 0.1400
vn -0.7143 -0.6962 0.0703
vn -0.7143 0.6962 0.0703
vn -0.7178 -0.6962 0.0000
vn -0.7178 0.6962 0.0000
vn -0.7143 -0.6962 -0.0703
vn -0.7143 0.6962 -0.0703
vn -0.7040 -0.6962 -0.1400
vn -0.7040 0.6962 -0.1400
vn -0.6869 -0.6962 -0.2083
vn -0.6869 0.6962 -0.2083
vn -0.6632 -0.6962 -0.2747
vn -0.6632 0.6962 -0.2747
vn -0.6330 -0.6962 -0.3384
vn -0.6330 0.6962 -0.3384
vn -0.5968 -0.6962 -0.3988
vn -0.5968 0.6962 -0.3988
vn -0.5549 -0.6962 -0.4554
vn -0.5549 0.6962 -0.4554
vn -0.5076 -0.6962 -0.5076
vn -0.5076 0.6962 -0.5076
vn -0.4554 -0.6962 -0.5549
vn -0.4554 0.6962 -0.5549
vn -0.3988 -0.6962 -0.5968
vn -0.3988 0.6962 -0.5968
vn -0.3384 -0.6962 -0.6330
vn -0.3384 0.6962 -0.6330
vn -0.2747 -0.6962 -0.6632
vn -0.2747 0.6962 -0.6632
vn -0.2083 -0.6962 -0.6869
vn -0.2083 0.6962 -0.6869
vn -0.1400 -0.6962 -0.7040
vn -0.1400 0.6962 -0.7040
vn -0.0703 -0.6962 -0.7143
vn -0.0703 0.6962 -0.7143
usemtl Cylinder_Surface
s 1
f 2/1/1 3/2/2 1/3/3
f 4/4/4 5/5/5 3/2/2
f 6/6/6 7/7/7 5/5/5
f 8/8/8 9/9/9 7/7/7
f 10/10/10 11/11/11 9/9/9
f 12/12/12 13/13/13 11/11/11
f 14/14/14 15/15/15 13/13/13
f 16/16/16 17/17/17 15/15/15
f 18/18/18 19/19/19 17/17/17
f 20/20/20 21/21/21 19/19/19
f 22/22/22 23/23/23 21/21/21
f 24/24/24 25/25/25 23/23/23
f 26/26/26 27/27/27 25/25/25
f 28/28/28 29/29/29 27/27/27
f 30/30/30 31/31/31 29/29/29
f 32/32/32 33/33/33 31/31/31
f 34/34/34 35/35/35 33/33/33
f 36/36/36 37/37/37 35/35/35
f 38/38/38 39/39/39 37/37/37
f 40/40/40 41/41/41 39/39/39
f 42/42/42 43/43/43 41/41/41
f 44/44/44 45/45/45 43/43/43
f 46/46/46 47/47/47 45/45/45
f 48/48/48 49/49/49 47/47/47
f 50/50/50 51/51/51 49/49/49
f 52/52/52 53/53/53 51/51/51
f 54/54/54 55/55/55 53/53/53
f 56/56/56 57/57/57 55/55/55
f 58/58/58 59/59/59 57/57/57
f 60/60/60 61/61/61 59/59/59
f 62/62/62 63/63/63 61/61/61
f 64/64/64 65/65/65 63/63/63
f 66/66/66 67/67/67 65/65/65
f 68/68/68 69/69/69 67/67/67
f 70/70/70 71/71/71 69/69/69
f 72/72/72 73/73/73 71/71/71
f 74/74/74 75/75/75 73/73/73
f 76/76/76 77/77/77 75/75/75
f 78/78/78 79/79/79 77/77/77
f 80/80/80 81/81/81 79/79/79
f 82/82/82 83/83/83 81/81/81
f 84/84/84 85/85/85 83/83/83
f 86/86/86 87/87/87 85/85/85
f 88/88/88 89/89/89 87/87/87
f 90/90/90 91/91/91 89/89/89
f 92/92/92 93/93/93 91/91/91
f 94/94/94 95/95/95 93/93/93
f 96/96/96 97/97/97 95/95/95
f 98/98/98 99/99/99 97/97/97
f 100/100/100 101/101/101 99/99/99
f 102/102/102 103/103/103 101/101/101
f 104/104/104 105/105/105 103/103/103
f 106/106/106 107/107/107 105/105/105
f 108/108/108 109/109/109 107/107/107
f 110/110/110 111/111/111 109/109/109
f 112/112/112 113/113/113 111/111/111
f 114/114/114 115/115/115 113/113/113
f 116/116/116 117/117/117 115/115/115
f 118/118/118 119/119/119 117/117/117
f 120/120/120 121/121/121 119/119/119
f 122/122/122 123/123/123 121/121/121
f 124/124/124 125/125/125 123/123/123
f 70/126/70 38/38/38 6/6/6
f 126/127/126 127/128/127 125/125/125
f 128/129/128 1/130/3 127/128/127
f 127/131/127 31/31/31 63/63/63
f 2/1/1 4/4/4 3/2/2
f 4/4/4 6/6/6 5/5/5
f 6/6/6 8/8/8 7/7/7
f 8/8/8 10/10/10 9/9/9
f 10/10/10 12/12/12 11/11/11
f 12/12/12 14/14/14 13/13/13
f 14/14/14 16/16/16 15/15/15
f 16/16/16 18/18/18 17/17/17
f 18/18/18 20/20/20 19/19/19
f 20/20/20 22/22/22 21/21/21
f 22/22/22 24/24/24 23/23/23
f 24/24/24 26/26/26 25/25/25
f 26/26/26 28/28/28 27/27/27
f 28/28/28 30/30/30 29/29/29
f 30/30/30 32/32/32 31/31/31
f 32/32/32 34/34/34 33/33/33
f 34/34/34 36/36/36 35/35/35
f 36/36/36 38/38/38 37/37/37
f 38/38/38 40/40/40 39/39/39
f 40/40/40 42/42/42 41/41/41
f 42/42/42 44/44/44 43/43/43
f 44/44/44 46/46/46 45/45/45
f 46/46/46 48/48/48 47/47/47
f 48/48/48 50/50/50 49/49/49
f 50/50/50 52/52/52 51/51/51
f 52/52/52 54/54/54 53/53/53
f 54/54/54 56/56/56 55/55/55
f 56/56/56 58/58/58 57/57/57
f 58/58/58 60/60/60 59/59/59
f 60/60/60 62/62/62 61/61/61
f 62/62/62 64/64/64 63/63/63
f 64/64/64 66/66/66 65/65/65
f 66/66/66 68/68/68 67/67/67
f 68/68/68 70/70/70 69/69/69
f 70/70/70 72/72/72 71/71/71
f 72/72/72 74/74/74 73/73/73
f 74/74/74 76/76/76 75/75/75
f 76/76/76 78/78/78 77/77/77
f 78/78/78 80/80/80 79/79/79
f 80/80/80 82/82/82 81/81/81
f 82/82/82 84/84/84 83/83/83
f 84/84/84 86/86/86 85/85/85
f 86/86/86 88/88/88 87/87/87
f 88/88/88 90/90/90 89/89/89
f 90/90/90 92/92/92 91/91/91
f 92/92/92 94/94/94 93/93/93
f 94/94/94 96/96/96 95/95/95
f 96/96/96 98/98/98 97/97/97
f 98/98/98 100/100/100 99/99/99
f 100/100/100 102/102/102 101/101/101
f 102/102/102 104/104/104 103/103/103
f 104/104/104 106/106/106 105/105/105
f 106/106/106 108/108/108 107/107/107
f 108/108/108 110/110/110 109/109/109
f 110/110/110 112/112/112 111/111/111
f 112/112/112 114/114/114 113/113/113
f 114/114/114 116/116/116 115/115/115
f 116/116/116 118/118/118 117/117/117
f 118/118/118 120/120/120 119/119/119
f 120/120/120 122/122/122 121/121/121
f 122/122/122 124/124/124 123/123/123
f 124/124/124 126/127/126 125/125/125
f 6/6/6 4/4/4 2/1/1
f 2/1/1 128/132/128 6/6/6
f 128/132/128 126/133/126 6/6/6
f 126/133/126 124/134/124 122/135/122
f 122/135/122 120/136/120 118/137/118
f 118/137/118 116/138/116 110/139/110
f 116/138/116 114/140/114 110/139/110
f 114/140/114 112/141/112 110/139/110
f 110/139/110 108/142/108 102/143/102
f 108/142/108 106/144/106 102/143/102
f 106/144/106 104/145/104 102/143/102
f 102/143/102 100/146/100 94/147/94
f 100/146/100 98/148/98 94/147/94
f 98/148/98 96/149/96 94/147/94
f 94/147/94 92/150/92 86/151/86
f 92/150/92 90/152/90 86/151/86
f 90/152/90 88/153/88 86/151/86
f 86/151/86 84/154/84 78/155/78
f 84/154/84 82/156/82 78/155/78
f 82/156/82 80/157/80 78/155/78
f 78/155/78 76/158/76 74/159/74
f 74/159/74 72/160/72 78/155/78
f 72/160/72 70/126/70 78/155/78
f 70/126/70 68/161/68 66/66/66
f 66/66/66 64/64/64 70/126/70
f 64/64/64 62/62/62 70/126/70
f 62/62/62 60/60/60 58/58/58
f 58/58/58 56/56/56 62/62/62
f 56/56/56 54/54/54 62/62/62
f 54/54/54 52/52/52 46/46/46
f 52/52/52 50/50/50 46/46/46
f 50/50/50 48/48/48 46/46/46
f 46/46/46 44/44/44 42/42/42
f 42/42/42 40/40/40 38/38/38
f 38/38/38 36/36/36 34/34/34
f 34/34/34 32/32/32 38/38/38
f 32/32/32 30/30/30 38/38/38
f 30/30/30 28/28/28 26/26/26
f 26/26/26 24/24/24 22/22/22
f 22/22/22 20/20/20 14/14/14
f 20/20/20 18/18/18 14/14/14
f 18/18/18 16/16/16 14/14/14
f 14/14/14 12/12/12 6/6/6
f 12/12/12 10/10/10 6/6/6
f 10/10/10 8/8/8 6/6/6
f 126/133/126 122/135/122 6/6/6
f 122/135/122 118/137/118 6/6/6
f 46/46/46 42/42/42 38/38/38
f 30/30/30 26/26/26 38/38/38
f 26/26/26 22/22/22 38/38/38
f 118/137/118 110/139/110 102/143/102
f 102/143/102 94/147/94 86/151/86
f 86/151/86 78/155/78 102/143/102
f 78/155/78 70/126/70 102/143/102
f 70/126/70 62/62/62 54/54/54
f 54/54/54 46/46/46 70/126/70
f 46/46/46 38/38/38 70/126/70
f 22/22/22 14/14/14 38/38/38
f 14/14/14 6/6/6 38/38/38
f 6/6/6 118/137/118 102/143/102
f 6/6/6 102/143/102 70/126/70
f 126/127/126 128/129/128 127/128/127
f 128/129/128 2/162/1 1/130/3
f 127/131/127 1/3/3 3/2/2
f 3/2/2 5/5/5 127/131/127
f 5/5/5 7/7/7 127/131/127
f 7/7/7 9/9/9 11/11/11
f 11/11/11 13/13/13 15/15/15
f 15/15/15 17/17/17 19/19/19
f 19/19/19 21/21/21 23/23/23
f 23/23/23 25/25/25 31/31/31
f 25/25/25 27/27/27 31/31/31
f 27/27/27 29/29/29 31/31/31
f 31/31/31 33/33/33 39/39/39
f 33/33/33 35/35/35 39/39/39
f 35/35/35 37/37/37 39/39/39
f 39/39/39 41/41/41 47/47/47
f 41/41/41 43/43/43 47/47/47
f 43/43/43 45/45/45 47/47/47
f 47/47/47 49/49/49 55/55/55
f 49/49/49 51/51/51 55/55/55
f 51/51/51 53/53/53 55/55/55
f 55/55/55 57/57/57 59/59/59
f 59/59/59 61/61/61 63/63/63
f 63/63/63 65/65/65 71/163/71
f 65/65/65 67/164/67 71/163/71
f 67/164/67 69/165/69 71/163/71
f 71/163/71 73/166/73 79/167/79
f 73/166/73 75/168/75 79/167/79
f 75/168/75 77/169/77 79/167/79
f 79/167/79 81/170/81 83/171/83
f 83/171/83 85/172/85 87/173/87
f 87/173/87 89/174/89 91/175/91
f 91/175/91 93/176/93 95/177/95
f 95/177/95 97/178/97 99/179/99
f 99/179/99 101/180/101 103/181/103
f 103/181/103 105/182/105 107/183/107
f 107/183/107 109/184/109 111/185/111
f 111/185/111 113/186/113 115/187/115
f 115/187/115 117/188/117 119/189/119
f 119/189/119 121/190/121 127/131/127
f 121/190/121 123/191/123 127/131/127
f 123/191/123 125/192/125 127/131/127
f 7/7/7 11/11/11 127/131/127
f 11/11/11 15/15/15 127/131/127
f 15/15/15 19/19/19 23/23/23
f 55/55/55 59/59/59 63/63/63
f 79/167/79 83/171/83 87/173/87
f 87/173/87 91/175/91 79/167/79
f 91/175/91 95/177/95 79/167/79
f 95/177/95 99/179/99 111/185/111
f 99/179/99 103/181/103 111/185/111
f 103/181/103 107/183/107 111/185/111
f 111/185/111 115/187/115 127/131/127
f 115/187/115 119/189/119 127/131/127
f 15/15/15 23/23/23 31/31/31
f 31/31/31 39/39/39 47/47/47
f 47/47/47 55/55/55 31/31/31
f 55/55/55 63/63/63 31/31/31
f 63/63/63 71/163/71 79/167/79
f 127/131/127 15/15/15 31/31/31
f 63/63/63 79/167/79 95/177/95
f 95/177/95 111/185/111 63/63/63
f 111/185/111 127/131/127 63/63/63
