# Blender v2.79 (sub 0) OBJ File: ''
# www.blender.org
mtllib Board.mtl
o Board_Cube.001
v -3.493667 1.286007 -6.479058
v -3.369480 1.169252 -6.248446
v -3.493667 1.341719 6.467750
v -3.369480 1.222983 6.238152
v 3.493667 1.286007 -6.479058
v 3.369480 1.169252 -6.248446
v 3.493667 1.341719 6.467750
v 3.369480 1.222983 6.238152
v -3.493667 -1.341719 -6.467750
v -3.493667 -1.286007 6.479058
v 3.493667 -1.286007 6.479058
v 3.493667 -1.341719 -6.467750
vt 0.166933 1.000000
vt 0.833067 0.000000
vt 0.166933 0.000000
vt 0.166933 1.000000
vt 0.833067 0.000000
vt 0.166933 0.000000
vt 0.166933 1.000000
vt 0.920927 -0.009668
vt 0.166933 0.000000
vt 0.166933 1.000000
vt 0.003157 0.000000
vt 0.166933 0.000000
vt 0.170153 0.996537
vt 0.317491 0.991667
vt 0.959947 0.027213
vt 0.959947 0.991667
vt 0.821228 0.044809
vt 0.178772 0.044809
vt 0.821228 0.044809
vt 0.178772 0.044809
vt 0.178772 0.044809
vt 0.833067 1.000000
vt 0.833067 1.000000
vt 0.821228 0.044809
vt 0.833067 1.000000
vt 0.920927 0.990332
vt 0.003157 1.000000
vt 0.836287 0.996537
vt 0.317491 0.027213
vn -1.0000 0.0000 0.0000
vn 0.0000 0.0043 1.0000
vn 1.0000 0.0000 0.0000
vn 0.0000 -0.0043 -1.0000
vn 0.0000 1.0000 -0.0043
vn 0.0000 -1.0000 0.0043
vn 0.9988 -0.0494 0.0002
vn 0.0000 -0.0956 -0.9954
vn -0.9988 -0.0494 0.0002
vn 0.0000 -0.0870 0.9962
usemtl Board_Surface
s off
f 9/1/1 3/2/1 1/3/1
f 10/4/2 7/5/2 3/6/2
f 11/7/3 5/8/3 7/9/3
f 12/10/4 1/11/4 5/12/4
f 7/5/5 1/13/5 3/6/5
f 4/14/6 6/15/6 8/16/6
f 4/17/7 9/1/7 2/18/7
f 8/19/8 10/4/8 4/20/8
f 6/21/9 11/22/9 8/19/9
f 2/18/10 12/23/10 6/24/10
f 9/1/1 10/25/1 3/2/1
f 10/4/2 11/22/2 7/5/2
f 11/7/3 12/26/3 5/8/3
f 12/10/4 9/27/4 1/11/4
f 7/5/5 5/28/5 1/13/5
f 4/14/6 2/29/6 6/15/6
f 4/17/7 10/25/7 9/1/7
f 8/19/8 11/22/8 10/4/8
f 6/21/9 12/10/9 11/22/9
f 2/18/10 9/1/10 12/23/10
