# Blender v2.80 (sub 75) OBJ File: ''
# www.blender.org
mtllib testingBox.mtl
o Cube
v 1.707608 -0.141238 -3.704326
v 1.707608 0.141238 -3.704326
v 1.707608 -0.141238 3.692518
v 1.707608 0.141238 3.692518
v -1.705312 -0.141238 -3.704326
v -1.705312 0.141238 -3.704326
v -1.705312 -0.141238 3.692518
v -1.705312 0.141238 3.692518
v -1.705312 0.141238 3.107479
v 1.707608 -0.141238 3.107479
v -1.705312 -0.141238 3.107479
v 1.707608 0.141238 3.107479
v -1.705312 -0.141238 -3.045632
v 1.707608 0.141238 -3.045632
v -1.705312 0.141238 -3.045631
v 1.707608 -0.141238 -3.045631
v -1.240365 0.141238 -3.704326
v -1.240365 -0.141238 3.692518
v -1.240365 0.141238 3.692518
v -1.240365 -0.141238 -3.704326
v -1.240365 0.141238 3.107479
v -1.240365 -0.141238 3.107479
v -1.240365 -0.141238 -3.045632
v -1.240365 0.141238 -3.045631
v 1.231568 0.141238 3.692518
v 1.231568 -0.141238 -3.704326
v 1.231568 -0.141238 3.107479
v 1.231568 -0.141238 -3.045631
v 1.231568 0.141238 -3.704326
v 1.231568 -0.141238 3.692518
v 1.231568 0.141238 3.107479
v 1.231568 0.141238 -3.045632
v -1.705312 0.634497 3.107479
v -1.705312 0.634497 3.692518
v -1.240365 0.634497 -3.704326
v -1.705312 0.634497 -3.704326
v 1.235078 0.634497 3.692518
v 1.707608 0.634497 3.692518
v 1.707608 0.634497 -3.045632
v 1.707608 0.634497 -3.704326
v -1.705312 0.634497 -3.045631
v 1.707608 0.634497 3.107479
v -1.243874 0.634497 3.107479
v -1.240365 0.634497 -3.045631
v 1.231568 0.634497 -3.704326
v -1.243874 0.634497 3.692518
v 1.235078 0.634497 3.107479
v 1.231568 0.634497 -3.045632
vt 0.625000 0.230227
vt 0.590942 0.250000
vt 0.590942 0.230227
vt 0.625000 0.465942
vt 0.375000 0.500000
vt 0.375000 0.465942
vt 0.625000 0.727737
vt 0.375000 0.750000
vt 0.375000 0.727737
vt 0.375000 0.250000
vt 0.375000 0.284870
vt 0.375000 0.250000
vt 0.375000 0.730227
vt 0.125000 0.750000
vt 0.125000 0.730227
vt 0.875000 0.715130
vt 0.625000 0.750000
vt 0.625000 0.715129
vt 0.375000 0.522263
vt 0.125000 0.522263
vt 0.375000 0.465942
vt 0.625000 0.500000
vt 0.375000 0.519773
vt 0.625000 0.022263
vt 0.590942 0.022263
vt 0.625000 0.000000
vt 0.590942 0.000000
vt 0.125000 0.730227
vt 0.375000 0.500000
vt 0.125000 0.500000
vt 0.625000 0.519773
vt 0.375000 0.500000
vt 0.409870 0.022263
vt 0.409870 0.000000
vt 0.409870 0.230227
vt 0.375000 0.727737
vt 0.875000 0.500000
vt 0.625000 0.534058
vt 0.625000 0.500000
vt 0.375000 0.284870
vt 0.625000 0.284870
vt 0.409870 0.250000
vt 0.375000 0.250000
vt 0.375000 0.230227
vt 0.625000 0.250000
vt 0.375000 0.022263
vt 0.375000 0.000000
vt 0.125000 0.522263
vt 0.590130 0.772263
vt 0.409058 0.980227
vt 0.409058 0.772263
vt 0.875000 0.534058
vt 0.625000 0.534058
vt 0.625000 0.980227
vt 0.590129 1.000000
vt 0.590129 0.980227
vt 0.625000 0.772263
vt 0.590130 0.772263
vt 0.625000 0.750000
vt 0.590130 0.750000
vt 0.409058 0.750000
vt 0.375000 0.772263
vt 0.375000 0.750000
vt 0.409058 0.980227
vt 0.375000 0.980227
vt 0.375000 1.000000
vt 0.409058 0.772263
vt 0.409058 1.000000
vt 0.625000 0.500000
vt 0.590129 0.980227
vt 0.625000 0.715129
vt 0.125000 0.500000
vt 0.375000 0.519773
vt 0.625000 0.250000
vt 0.625000 0.750000
vt 0.375000 0.750000
vt 0.875000 0.750000
vt 0.125000 0.750000
vt 0.625000 1.000000
vn 0.0000 1.0000 0.0000
vn 0.0000 0.0000 -1.0000
vn 1.0000 0.0000 0.0000
vn -1.0000 0.0000 0.0000
vn 0.0000 0.0000 1.0000
vn 0.0000 -1.0000 0.0000
vn 1.0000 -0.0071 -0.0006
vn -1.0000 -0.0071 -0.0006
usemtl Material
s off
f 11/1/1 18/2/1 22/3/1
f 18/4/2 8/5/2 19/6/2
f 13/7/3 6/8/3 15/9/3
f 4/10/2 37/11/2 38/12/2
f 10/13/4 4/14/4 12/15/4
f 26/16/5 2/17/5 29/18/5
f 16/19/4 12/15/4 14/20/4
f 8/5/2 46/21/2 19/6/2
f 7/22/3 9/23/3 8/5/3
f 13/24/1 22/3/1 23/25/1
f 5/26/1 23/25/1 20/27/1
f 4/14/4 42/28/4 12/15/4
f 1/29/4 14/20/4 2/30/4
f 11/31/3 15/9/3 9/23/3
f 9/23/3 34/32/3 8/5/3
f 20/27/1 28/33/1 26/34/1
f 23/25/1 27/35/1 28/33/1
f 6/8/3 41/36/3 15/9/3
f 5/37/5 17/38/5 6/39/5
f 19/6/2 37/11/2 25/40/2
f 30/41/2 19/6/2 25/40/2
f 22/3/1 30/42/1 27/35/1
f 27/35/1 3/43/1 10/44/1
f 3/45/2 25/40/2 4/10/2
f 28/33/1 10/44/1 16/46/1
f 26/34/1 16/46/1 1/47/1
f 12/15/4 39/48/4 14/20/4
f 32/49/6 21/50/6 24/51/6
f 20/52/5 29/18/5 17/38/5
f 29/18/5 35/53/5 17/38/5
f 42/54/6 37/55/6 47/56/6
f 39/57/6 47/56/6 48/58/6
f 40/59/6 48/58/6 45/60/6
f 35/61/6 41/62/6 36/63/6
f 41/62/6 43/64/6 33/65/6
f 43/64/6 34/66/6 33/65/6
f 45/60/6 44/67/6 35/61/6
f 47/56/6 46/68/6 43/64/6
f 17/38/5 36/69/5 6/39/5
f 21/50/4 44/67/4 24/51/4
f 31/70/5 43/64/5 21/50/5
f 2/17/5 45/71/5 29/18/5
f 14/20/4 40/72/4 2/30/4
f 15/9/3 33/73/3 9/23/3
f 31/70/7 48/58/7 47/56/7
f 24/51/2 48/58/2 32/49/2
f 11/1/1 7/74/1 18/2/1
f 18/4/2 7/22/2 8/5/2
f 13/7/3 5/75/3 6/8/3
f 4/10/2 25/40/2 37/11/2
f 10/13/4 3/76/4 4/14/4
f 26/16/5 1/77/5 2/17/5
f 16/19/4 10/13/4 12/15/4
f 8/5/2 34/32/2 46/21/2
f 7/22/3 11/31/3 9/23/3
f 13/24/1 11/1/1 22/3/1
f 5/26/1 13/24/1 23/25/1
f 4/14/4 38/78/4 42/28/4
f 1/29/4 16/19/4 14/20/4
f 11/31/3 13/7/3 15/9/3
f 9/23/3 33/73/3 34/32/3
f 20/27/1 23/25/1 28/33/1
f 23/25/1 22/3/1 27/35/1
f 6/8/3 36/63/3 41/36/3
f 5/37/5 20/52/5 17/38/5
f 19/6/2 46/21/2 37/11/2
f 30/41/2 18/4/2 19/6/2
f 22/3/1 18/2/1 30/42/1
f 27/35/1 30/42/1 3/43/1
f 3/45/2 30/41/2 25/40/2
f 28/33/1 27/35/1 10/44/1
f 26/34/1 28/33/1 16/46/1
f 12/15/4 42/28/4 39/48/4
f 32/49/6 31/70/6 21/50/6
f 20/52/5 26/16/5 29/18/5
f 29/18/5 45/71/5 35/53/5
f 42/54/6 38/79/6 37/55/6
f 39/57/6 42/54/6 47/56/6
f 40/59/6 39/57/6 48/58/6
f 35/61/6 44/67/6 41/62/6
f 41/62/6 44/67/6 43/64/6
f 43/64/6 46/68/6 34/66/6
f 45/60/6 48/58/6 44/67/6
f 47/56/6 37/55/6 46/68/6
f 17/38/5 35/53/5 36/69/5
f 21/50/8 43/64/8 44/67/8
f 31/70/5 47/56/5 43/64/5
f 2/17/5 40/59/5 45/71/5
f 14/20/4 39/48/4 40/72/4
f 15/9/3 41/36/3 33/73/3
f 31/70/3 32/49/3 48/58/3
f 24/51/2 44/67/2 48/58/2
