# Blender v2.79 (sub 0) OBJ File: ''
# www.blender.org
mtllib Board.mtl
o Board_Cube.002
v -2.648178 -1.628504 5.880329
v -2.456205 -1.486799 5.454050
v -2.648178 -1.628504 -5.880329
v -2.456205 -1.486799 -5.454050
v 2.648178 -1.628504 5.880329
v 2.456205 -1.486799 5.454050
v 2.648178 -1.628504 -5.880329
v 2.456205 -1.486799 -5.454050
v -2.648178 1.628504 5.880329
v -2.648178 1.628504 -5.880329
v 2.648178 1.628504 -5.880329
v 2.648178 1.628504 5.880329
vt 0.160368 0.503036
vt 0.539168 1.010397
vt 0.538077 0.501566
vt 0.160368 0.503036
vt 0.539168 1.010397
vt 0.538077 0.501566
vt 0.160368 0.503036
vt 0.536986 -0.007265
vt 0.538077 0.501566
vt 0.160368 0.503036
vt 0.536986 -0.007265
vt 0.538077 0.501566
vt 0.915786 0.500096
vt 0.174098 0.521426
vt 0.525438 0.992007
vt 0.175110 0.993371
vt 0.522695 0.992018
vt 0.521683 0.520073
vt 0.522695 0.992018
vt 0.521683 0.520073
vt 0.521683 0.520073
vt 0.161459 1.011867
vt 0.161459 1.011867
vt 0.522695 0.992018
vt 0.161459 1.011867
vt 0.159277 -0.005795
vt 0.159277 -0.005795
vt 0.916877 1.008928
vt 0.524426 0.520063
vn -1.0000 0.0000 0.0000
vn 0.0000 0.0000 -1.0000
vn 1.0000 0.0000 0.0000
vn 0.0000 0.0000 1.0000
vn 0.0000 -1.0000 0.0000
vn 0.0000 1.0000 0.0000
vn 0.9981 0.0615 0.0000
vn 0.0000 0.1356 0.9908
vn -0.9981 0.0615 0.0000
vn 0.0000 0.1356 -0.9908
usemtl Board_Surface
s off
f 9/1/1 3/2/1 1/3/1
f 10/4/2 7/5/2 3/6/2
f 11/7/3 5/8/3 7/9/3
f 12/10/4 1/11/4 5/12/4
f 7/5/5 1/13/5 3/6/5
f 4/14/6 6/15/6 8/16/6
f 4/17/7 9/1/7 2/18/7
f 8/19/8 10/4/8 4/20/8
f 6/21/9 11/22/9 8/19/9
f 2/18/10 12/23/10 6/24/10
f 9/1/1 10/25/1 3/2/1
f 10/4/2 11/22/2 7/5/2
f 11/7/3 12/26/3 5/8/3
f 12/10/4 9/27/4 1/11/4
f 7/5/5 5/28/5 1/13/5
f 4/14/6 2/29/6 6/15/6
f 4/17/7 10/25/7 9/1/7
f 8/19/8 11/22/8 10/4/8
f 6/21/9 12/10/9 11/22/9
f 2/18/10 9/1/10 12/23/10
